<svg width="2300" height="1000" viewBox="0 0 2300 1000" fill="none" xmlns="http://www.w3.org/2000/svg">
<g clip-path="url(#clip0_5_2)">
<path d="M-112.784 887.312C-72.9082 933.547 -18.7563 973.186 39.5882 969.528C66.0904 968.073 92.1826 957.606 115.371 942.973C134.249 931.371 153.08 914.949 170.12 899.194C325.022 758.58 500.348 646.471 686.215 568.18C840.051 501.451 1005.17 469.528 1169.28 473.654C1176.8 473.694 1188.19 474.241 1195.79 474.615C1217.45 475.536 1240.53 477.486 1262.07 480.036C1395.25 495.269 1524.23 540.089 1656.89 549.996C1808.54 560.209 1963.28 547.138 2108.18 492.733C2135.8 482.385 2164.09 470.009 2190.61 456.404C2213.33 444.749 2235.99 432.118 2257.52 417.886C2289.07 395.203 2317.72 366.471 2345.93 338.247C2435 247.232 2518.89 148.126 2601.35 49.2213C2659.56 -21.4863 2719.11 -94.8908 2775.26 -167.534L2808.27 -133.516C2750.01 -62.1405 2689.59 10.236 2630.2 80.6232C2533.59 193.534 2437.69 307.833 2331.76 409.916C2316.32 424.442 2300.39 438.554 2283.67 451.224C2103.02 573.213 1887.72 609.234 1680.65 603.774C1668.67 603.56 1653.16 602.506 1641.05 601.958C1619.43 600.236 1596.91 598.06 1575.42 595.069C1456.28 579.154 1339.43 545.069 1219.61 540.556C1065.09 534.949 910.516 575.576 770.382 647.846C759.268 653.413 741.303 663.227 730.318 668.927C633.807 721.491 539.112 780.49 447.555 843.534C371.843 895.563 297.759 951.224 224.799 1008.3C220.735 1011.41 216.718 1014.56 212.502 1017.51L206.248 1022C173.399 1044.71 137.458 1062.16 99.3498 1069.62C-1.98602 1090.44 -95.0187 1029.46 -143.877 929.154C-145.037 926.751 -146.173 924.348 -147.262 921.851L-148.913 918.06L-150.705 913.787L-112.761 887.285L-112.784 887.312Z" fill="#006C90"/>
<path d="M2618.44 -619.646C2563.1 -389.487 2505.42 -157.845 2412.76 57.0806C2334.66 237.734 2228.2 403.742 2077.89 513.875C2026.87 550.911 1971.51 580.817 1913.47 600.39C1808.17 636.144 1696.85 640.363 1587.77 635.41C1476.69 630.23 1365.82 615.504 1254.71 617.026C1193.27 617.386 1131.6 624.142 1071.84 640.937C933.952 678.16 810.833 761.551 684.248 831.11C620.364 866.718 554.677 898.894 488.24 928.28C353.129 988.279 210.675 1039.48 65.095 1055.44C-8.34522 1063.31 -83.0502 1062.85 -155.624 1046.86L-155.729 1020.16C-138.139 1015.62 -120.748 1011.67 -103.498 1006.98C119.165 950.336 325.467 837.706 536.103 739.989C636.935 694.168 742.323 660.07 849.035 636.745C907.274 623.821 965.794 613.047 1024.48 603.821C1087.24 593.968 1150.29 585.651 1213.5 581.178C1307.52 575.116 1402.61 582.192 1495.85 586.772C1650.86 594.476 1814.11 595.624 1956.83 517.066C1965.83 512.393 1976.46 505.677 1985.2 500.444C1991.67 496.278 2000.89 490.137 2007.26 485.798C2013.1 481.619 2018.15 477.88 2023.43 474.102C2030.47 468.922 2037.74 462.834 2044.5 457.627C2048.92 453.702 2060.27 444.449 2064.94 440.11L2074.92 430.991L2079.9 426.439C2256.11 259.697 2343.21 6.42657 2396.41 -241.343C2421.24 -357.805 2438.78 -476.082 2452.11 -595.014C2454.84 -617.911 2456.15 -633.385 2458.43 -655L2618.45 -619.633L2618.44 -619.646Z" fill="#4CB050"/>
<path d="M2615.44 -312.15C2612.38 -294.006 2608.06 -276.182 2603.32 -258.532C2569.05 -134.713 2510.01 -21.1217 2438.92 79.7864C2319.19 248.745 2162.17 380.708 1991.39 475.368C1786.73 588.386 1563.39 649.04 1340.08 690.522C1123.95 733.62 905.622 774.434 691.543 828.64C569.549 860.723 446.747 895.035 332.845 955.423C269.605 989.468 210.569 1035.5 163.655 1094.88C145.467 1117.61 128.802 1142.42 113.754 1167.95L110.521 1173.45L107.383 1179.03C105.31 1182.77 103.167 1186.42 101.152 1190.22C91.3854 1208.56 81.0797 1228.68 72.5657 1248L42.7727 1226.76C126.027 1097.84 200.58 1014.72 329.355 946.985C444.147 886.784 566.996 851.337 689.131 816.878C865.465 768.56 1063.38 721.07 1241.72 676.904C1273.09 669.24 1349.88 650.335 1380.01 642.965C1555.43 601.483 1725.71 534.968 1883.87 440.481C1948.12 402.404 2011.69 359.266 2071.55 312.844C2156.53 247.197 2236.69 172.724 2309.51 90.267C2414.81 -28.9989 2507.45 -164.006 2577.04 -313.846L2579.69 -319.667C2580.4 -321.216 2581.78 -324.353 2582.47 -325.929L2615.46 -312.137L2615.44 -312.15Z" fill="#F36C58"/>
</g>
<defs>
<clipPath id="clip0_5_2">
<rect width="2300" height="1000" fill="white"/>
</clipPath>
</defs>
</svg>
