<?xml version="1.0" encoding="UTF-8"?>
<svg id="Capa_1" data-name="Capa 1" xmlns="http://www.w3.org/2000/svg" viewBox="0 0 1920 2160">
  <defs>
    <style>
      .cls-1 {
        fill: #f36c58;
      }

      .cls-2 {
        fill: #4cb050;
      }

      .cls-3 {
        fill: #006c90;
      }
    </style>
  </defs>
  <path class="cls-3" d="M-261.77,1224.22c34.05,34.63,80.29,64.32,130.11,61.58,22.63-1.09,44.91-8.93,64.71-19.89,16.12-8.69,32.2-20.99,46.75-32.79,132.27-105.32,281.98-189.29,440.69-247.93,131.36-49.98,272.35-73.89,412.49-70.8,6.42.03,16.14.44,22.63.72,18.5.69,38.21,2.15,56.6,4.06,113.72,11.41,223.86,44.98,337.13,52.4,129.5,7.65,261.63-2.14,385.36-42.89,23.58-7.75,47.74-17.02,70.38-27.21,19.4-8.73,38.75-18.19,57.14-28.85,26.94-16.99,51.4-38.51,75.49-59.65,76.06-68.17,147.69-142.4,218.1-216.48,49.71-52.96,100.56-107.94,148.5-162.35,0,0,28.19,25.48,28.19,25.48-49.75,53.46-101.34,107.67-152.05,160.39-82.5,84.57-164.39,170.18-254.84,246.64-13.18,10.88-26.79,21.45-41.06,30.94-154.26,91.37-338.1,118.35-514.92,114.26-10.23-.16-23.47-.95-33.81-1.36-18.46-1.29-37.69-2.92-56.04-5.16-101.74-11.92-201.51-37.45-303.83-40.83-131.94-4.2-263.93,26.23-383.59,80.36-9.49,4.17-24.83,11.52-34.21,15.79-82.41,39.37-163.27,83.56-241.45,130.78-64.65,38.97-127.91,80.66-190.21,123.41-3.47,2.33-6.9,4.69-10.5,6.9,0,0-5.34,3.36-5.34,3.36-28.05,17.01-58.74,30.08-91.28,35.67-86.53,15.59-165.97-30.08-207.69-105.21-.99-1.8-1.96-3.6-2.89-5.47,0,0-1.41-2.84-1.41-2.84,0,0-1.53-3.2-1.53-3.2,0,0,32.4-19.85,32.4-19.85h0Z"/>
  <path class="cls-2" d="M2070.4,95.51c-47.25,172.39-96.51,345.89-175.63,506.87-66.69,135.31-157.59,259.65-285.94,342.14-43.57,27.74-90.84,50.14-140.4,64.8-89.91,26.78-184.97,29.94-278.11,26.23-94.85-3.88-189.52-14.91-284.4-13.77-52.46.27-105.12,5.33-156.15,17.91-117.74,27.88-222.87,90.34-330.96,142.44-54.55,26.67-110.64,50.77-167.37,72.78-115.37,44.94-237.01,83.29-361.32,95.24-62.71,5.9-126.5,5.55-188.47-6.42,0,0-.09-20-.09-20,15.02-3.4,29.87-6.36,44.6-9.87,190.13-42.43,366.29-126.79,546.15-199.98,86.1-34.32,176.09-59.86,267.21-77.33,49.73-9.68,99.7-17.75,149.81-24.66,53.59-7.38,107.43-13.61,161.4-16.96,80.29-4.54,161.48.76,241.1,4.19,132.36,5.77,271.76,6.63,393.63-52.21,7.68-3.5,16.76-8.53,24.22-12.45,5.53-3.12,13.4-7.72,18.84-10.97,4.99-3.13,9.3-5.93,13.81-8.76,6.01-3.88,12.22-8.44,17.99-12.34,3.77-2.94,13.46-9.87,17.45-13.12,0,0,8.52-6.83,8.52-6.83,0,0,4.26-3.41,4.26-3.41,150.46-124.89,224.83-314.59,270.26-500.17,21.2-87.23,36.18-175.82,47.56-264.9,2.33-17.15,3.45-28.74,5.4-44.93,0,0,136.64,26.49,136.64,26.49h0Z"/>
  <path class="cls-1" d="M2067.84,325.83c-2.61,13.59-6.3,26.94-10.35,40.16-29.26,92.74-79.68,177.82-140.38,253.4-102.24,126.55-236.31,225.39-382.14,296.29-174.76,84.65-365.47,130.08-556.15,161.15-184.55,32.28-370.98,62.85-553.78,103.45-104.17,24.03-209.03,49.73-306.29,94.96-54,25.5-104.41,59.98-144.47,104.45-15.53,17.03-29.76,35.61-42.61,54.73,0,0-2.76,4.12-2.76,4.12,0,0-2.68,4.18-2.68,4.18-1.77,2.8-3.6,5.54-5.32,8.38-8.34,13.74-17.14,28.81-24.41,43.28,0,0-25.44-15.91-25.44-15.91,71.09-96.56,134.75-158.82,244.71-209.55,98.02-45.09,202.92-71.64,307.21-97.45,150.57-36.19,319.57-71.76,471.85-104.84,26.79-5.74,92.36-19.9,118.09-25.42,149.79-31.07,295.19-80.89,430.24-151.66,54.86-28.52,109.14-60.83,160.26-95.6,72.56-49.17,141.01-104.95,203.19-166.71,89.91-89.33,169.02-190.45,228.44-302.68,0,0,2.26-4.36,2.26-4.36.61-1.16,1.79-3.51,2.38-4.69,0,0,28.17,10.33,28.17,10.33h0Z"/>
</svg>